<svg width="124" height="144" viewBox="0 0 124 144" fill="none" xmlns="http://www.w3.org/2000/svg">
<path d="M5.70475 119.147L33.6111 141.735C35.3017 143.087 37.3755 143.831 39.5395 143.831H41.4329C44.3182 143.831 47.1359 142.907 49.4577 141.216L72.5176 124.444C79.3702 119.462 85.4338 113.466 90.5057 106.68L96.0058 99.3312C104.391 88.1046 108.922 74.466 108.922 60.4667V37.4501C108.922 35.8495 109.486 34.3166 110.545 33.0993L121.951 19.8439C123.709 17.319 123.709 13.9601 121.906 11.4578L120.689 9.74452L110.545 1.74168C108.246 -0.0617767 105.158 -0.51264 102.43 0.614519C99.2517 1.92202 96.5017 4.08618 94.4955 6.85899L89.6716 13.5769C88.522 15.1549 86.8539 16.282 84.9605 16.7554L72.3373 19.8213C62.0584 22.3236 52.2979 26.6294 43.5293 32.5582L34.6254 38.5773C28.7196 42.5674 23.5801 47.5945 19.455 53.4332C11.1147 65.2233 5.38917 78.659 2.70674 92.8612L0.452592 104.854C-0.561773 110.22 1.44442 115.72 5.70475 119.147Z" fill="#72A7D0"/>
<path d="M100.515 59.0013V64.2088C100.515 70.9041 99.117 77.5319 96.412 83.6636L94.9694 86.9549C93.2337 90.8774 90.8217 94.4392 87.8237 97.5051L86.0655 99.3085C82.4363 103.006 76.4403 102.938 72.9238 99.1282L78.3789 86.3011L84.5778 74.1504L90.2807 64.0961C91.2275 62.6759 94.2706 55.169 95.4878 53.9517C98.2829 53.9517 100.537 56.206 100.537 59.0013H100.515Z" fill="#011248" fill-opacity="0.56"/>
<path d="M99.5232 56.0258L100.538 57.7616L101.236 61.4587C102.115 64.7274 102.566 68.1089 102.566 71.4904V73.4066C102.566 75.5933 102.318 77.7799 101.8 79.899L101.259 82.1308C100.763 84.1597 99.974 86.1209 98.892 87.9018L95.849 92.929L91.9042 98.2491C90.5968 100.008 88.8837 101.45 86.9225 102.442C84.9614 103.051 83.9245 103.299 82.4143 102.893L79.0781 101.991L84.2627 99.3087C86.607 98.0913 88.6582 96.4232 90.3038 94.3718L91.228 93.222C92.062 92.185 92.7833 91.0579 93.3694 89.8631L95.1276 86.2787C95.9842 84.5429 96.6379 82.7169 97.0662 80.8233L97.4719 79.1325C97.9228 77.1713 98.2609 75.1875 98.4412 73.1811L98.6892 70.5211C98.8695 68.6274 98.892 66.7338 98.7793 64.8627L98.7117 59.8356C98.7117 59.4298 98.6892 59.0015 98.6216 58.5957L98.1707 54.7859L99.5007 56.0709L99.5232 56.0258Z" fill="#011248" fill-opacity="0.56"/>
<path d="M72.3613 19.8437L89.6732 13.5993L98.8701 20.0692C101.147 21.6697 104.1 21.9402 106.647 20.768L110.186 19.1224C111.606 18.4686 112.913 17.5443 114.04 16.4397L120.69 9.74438L121.389 10.7363C122.787 12.5397 123.643 14.5686 123.08 17.364L122.584 19.0773L112.147 31.2055C111.065 32.4454 110.231 33.8656 109.667 35.4211L108.924 37.45L72.3613 19.8437Z" fill="#011248" fill-opacity="0.56"/>
<path d="M101.8 3.04921L104.866 1.80933L108.608 3.04921L110.118 4.31162H101.8H98.8926L101.8 3.04921Z" fill="#BBD0E4"/>
<path d="M7.32788 112.519L34.2874 135.152C36.0457 136.618 38.2547 137.429 40.5314 137.429H44.9496L5.20898 104.787V107.965C5.20898 109.724 5.99793 111.392 7.32788 112.541V112.519Z" fill="#011248" fill-opacity="0.56"/>
<path d="M72.3607 19.8441C65.7335 21.2192 63.3441 21.5574 50.4053 28.14L46.0774 30.6423L42.065 33.0769C39.112 34.8128 25.9028 43.6271 19.9067 52.8699L16.6157 57.7392L13.5275 62.7212C7.73436 74.083 8.20773 72.798 5.77326 79.6962L2.82033 91.1256L0.859223 102.871C0.430936 105.35 -0.403099 109.115 0.228061 111.572L2.45967 115.405L6.24663 92.9967C7.28353 86.8424 9.24464 80.891 12.0623 75.3228L17.2018 65.1559L22.8597 57.3334C25.3392 53.9068 28.1794 50.7733 31.3578 47.9554L39.5854 40.6515C43.147 37.4954 47.0692 34.7677 51.2619 32.5359L63.3441 26.0885C66.4548 24.4429 69.7459 23.1805 73.1496 22.3238L76.0349 21.6024L72.3381 19.8215L72.3607 19.8441Z" fill="#BBD0E4"/>
<path d="M23.5141 99.6016L28.9917 104.223C31.7192 106.522 34.9201 108.168 38.3915 109.025L46.1458 110.963C50.2708 112 54.4185 109.453 55.3877 105.328L57.7095 95.4086L61.7219 81.2514C63.7957 73.9249 67.3572 67.0943 72.1811 61.188L76.1484 56.3187C78.1095 53.9291 80.3186 51.7649 82.7756 49.8939L82.8883 49.8037C84.7592 48.3835 84.6691 45.543 82.7305 44.2355L79.9128 42.3419C77.3431 40.6286 74.4578 39.4789 71.4147 38.983L67.0868 38.2841C63.6154 37.7206 60.0538 38.3518 56.9882 40.065L53.2463 42.1616C49.6397 44.1679 46.2359 46.5575 43.1252 49.2627L34.8299 56.4539L27.6618 64.6146C25.9261 66.5758 24.4609 68.7625 23.2887 71.107L19.3214 79.0197C15.805 86.0306 17.5407 94.5294 23.5141 99.5791V99.6016Z" fill="#011248" fill-opacity="0.56"/>
<path d="M36.3178 63.1493L26.4897 78.3659C24.7991 80.3497 24.0101 82.9422 24.2806 85.5347L24.6864 89.2317C24.9343 91.5086 26.0163 93.6051 27.7295 95.1381L32.2378 99.1282C33.0267 99.8271 33.996 100.3 35.0555 100.503C39.2031 101.292 43.0577 98.0912 43.0577 93.8757C43.0577 93.1543 42.8548 92.4329 42.4716 91.8242L41.4572 84.0243C41.5925 85.1965 40.8261 83.0324 41.4572 84.0243L41.3445 74.6689L43.0577 64.3892C41.5699 59.4748 38.1662 60.9851 36.3178 63.1718V63.1493Z" fill="#BBD0E4"/>
</svg>
