<svg width="181" height="130" viewBox="0 0 181 130" fill="none" xmlns="http://www.w3.org/2000/svg">
<path d="M0 92.3787L26.7263 129.632H154.548L179.215 90.7517C179.215 90.7517 111.387 63.1933 0 92.3454" fill="#72A7D0"/>
<path d="M12.3841 16.0783C28.785 32.2149 74.2695 64.1229 175.331 60.8358C179.88 60.703 182.469 55.5566 179.913 51.8046C166.168 31.7501 121.879 -14.9664 16.0361 4.75609C10.7241 5.75217 8.53283 12.26 12.3841 16.0783Z" fill="#72A7D0"/>
<path d="M157.635 94.1717C141.4 89.0252 93.4253 77.9355 16.4005 94.1385C13.9769 94.6366 13.9437 98.1561 16.4005 98.6209C40.4044 103.402 102.655 112.998 157.535 98.2224C159.527 97.6912 159.627 94.8025 157.668 94.2049L157.635 94.1717Z" fill="#011248" fill-opacity="0.56"/>
<path d="M16.0356 4.78906C16.0356 4.78906 7.07155 6.68163 10.79 13.5546C25.9957 41.6111 117.031 69.103 175.298 60.8687C184.395 59.5738 179.879 51.8375 179.879 51.8375C175.829 65.3511 6.10873 27.4334 16.0024 4.78906H16.0356Z" fill="#011248" fill-opacity="0.56"/>
<path d="M25.8961 8.24214C25.8961 8.24214 48.4723 4.78906 61.2544 4.78906L66.8985 5.78511L20.7832 11.3964L25.8961 8.24214Z" fill="#BBD0E4"/>
<path d="M14.5762 105.294C14.5762 105.294 20.021 111.105 36.0568 111.105L30.2467 127.275C30.2467 127.275 26.1963 121.863 18.4274 109.578L14.5762 105.328V105.294Z" fill="#BBD0E4"/>
</svg>
