<svg width="161" height="177" viewBox="0 0 161 177" fill="none" xmlns="http://www.w3.org/2000/svg">
<path d="M58.7468 163.895L67.5598 176.835L160.377 129.241L143.352 106.906L131.594 100.456L128.67 82.2479L109.562 61.6759V50.5185L98.125 35.2348L97.5241 10.5564L89.8928 0L0 45.8112L6.46957 59.3323L18.2269 69.3078L21.7521 84.5915L32.9086 92.8243L44.0651 124.534L60.5094 142.161L58.7468 163.895Z" fill="#72A7D0"/>
<path d="M0 45.8112L89.8928 0L97.5241 10.5564L6.46957 59.3323L0 45.8112Z" fill="#BBD0E4"/>
<path d="M58.7461 163.895L67.5591 176.835L160.376 129.241L151.563 117.683L58.7461 163.895Z" fill="#BBD0E4"/>
<path d="M85.3262 2.3236L89.8929 0L97.5242 10.5564L98.1251 35.2348L109.562 50.5185V61.6759L128.67 82.2479L131.595 100.456L143.352 106.906L160.377 129.241L143.252 117.683L138.705 108.709L125.065 104.923L125.826 86.3543L105.736 64.6205V53.0224L93.999 36.7371V16.2853L85.3262 2.3236Z" fill="#011248" fill-opacity="0.56"/>
<path d="M93.9984 16.2854L83.4028 32.5707L67.8598 29.6662L62.1914 41.2843L70.9043 35.2148L87.9495 37.1178L93.9984 23.4766V16.2854Z" fill="#011248" fill-opacity="0.56"/>
<path d="M48.7715 86.3543L58.7462 93.5455H80.1979L85.3255 86.3543L78.0948 89.9599L60.2885 88.4175L51.0348 81.687L48.7715 86.3543Z" fill="#011248" fill-opacity="0.56"/>
<path d="M18.2266 69.3078L45.0462 77.6407L53.8592 69.3078L62.1915 67.8054L55.3614 72.713L48.7717 86.3542L21.7518 84.5915L18.2266 69.3078Z" fill="#011248" fill-opacity="0.56"/>
<path d="M60.5091 142.161H85.2857L80.1982 122.731H93.9986V108.709L88.3303 117.683H72.0262L71.2851 128.4L51.0352 132.005L60.5091 142.161Z" fill="#011248" fill-opacity="0.56"/>
</svg>
