<svg width="104" height="192" viewBox="0 0 104 192" fill="none" xmlns="http://www.w3.org/2000/svg">
<path d="M90.7839 186H90.4414C87.5015 185.943 84.5617 185.658 81.7074 185.03C78.368 184.288 75.0571 183.09 75 180.979L82.7921 99.7662L75.0856 57.9758C74.8858 56.6351 79.8237 28.3374 79.8237 26.9682L75.0856 9.05387L100.117 7L101.259 26.9682L95.6075 56.0361L103 94.7172L100.317 180.266C97.263 186.685 93.9806 185.116 90.7554 186H90.7839Z" fill="#72A7D0" stroke="#72A7D0" stroke-miterlimit="10"/>
<path d="M47.1256 184.341L46.8095 184.399C44.0793 184.856 41.3204 185.085 38.5615 184.971C35.3715 184.828 32.0953 184.313 31.6929 182.339L11.2022 69.0698C10.7999 67.8681 11.4321 70.3 11.2022 69.0698L1 22.4632L25.8302 18L32.5263 63.834L55 177.504C53.2757 183.912 49.9707 183.025 47.1256 184.37V184.341Z" fill="#72A7D0"/>
<path d="M11.2022 69.0698L31.6929 182.339C32.0953 184.313 35.3715 184.828 38.5615 184.971C41.3204 185.085 44.0793 184.856 46.8095 184.399L47.1256 184.341V184.37C49.9707 183.025 53.2757 183.912 55 177.504L32.5263 63.834L25.8302 18L1 22.4632L11.2022 69.0698ZM11.2022 69.0698C10.7999 67.8681 11.4321 70.3 11.2022 69.0698Z" stroke="#72A7D0" stroke-miterlimit="10"/>
<path d="M22 133.739L30.9444 185.619C31.2283 187.3 32.3357 188.691 33.8122 189.213L36.2826 190.083C41.4789 191.88 47.0158 191.01 51.3886 187.706L54.0578 185.706C56.3293 183.996 57.4367 180.866 56.8405 177.794L47.6121 130L22 133.797V133.739Z" fill="#011248" fill-opacity="0.56"/>
<path d="M25 140L33.5916 182.928L41 185L28.2113 141.611L25 140Z" fill="#BBD0E4"/>
<path d="M2 27L9.26811 28.722L29 142L25.6724 140.393L2 27Z" fill="#BBD0E4"/>
<path d="M77.4631 137L103.856 137.891L104 179.124C103.971 183.207 101.87 186.973 98.4451 189.101C92.8614 192.551 85.925 192.954 79.9959 190.136L77.8373 189.101C75.7937 188.123 72.9156 186.082 73.0019 183.782L77.0314 137.345C77.0314 136.914 77.0314 137.029 77.4631 137.029V137Z" fill="#011248" fill-opacity="0.56"/>
<path d="M77.4179 15L83.1926 16.3118L86.5492 27.6338L80.8315 58.434L88 96.5065L81.5711 185L77.4179 181.121L82.6805 99.7576L75 57.9777L83.1926 28.6605L77.4179 15Z" fill="#BBD0E4"/>
<path d="M87.5 12C94.9558 12 101 9.53756 101 6.5C101 3.46244 94.9558 1 87.5 1C80.0442 1 74 3.46244 74 6.5C74 9.53756 80.0442 12 87.5 12Z" fill="#011248" fill-opacity="0.8" stroke="#5C6279" stroke-miterlimit="10"/>
<path d="M14.408 25.6135C21.3314 24.3603 26.5247 21.0287 26.0077 18.1722C25.4907 15.3157 19.4591 14.016 12.5358 15.2693C5.61246 16.5226 0.419126 19.8542 0.936136 22.7107C1.45315 25.5672 7.48473 26.8668 14.408 25.6135Z" fill="#011248" fill-opacity="0.8" stroke="#5C6279" stroke-miterlimit="10"/>
</svg>
