<svg width="164" height="131" viewBox="0 0 164 131" fill="none" xmlns="http://www.w3.org/2000/svg">
<path d="M121.878 128.867L131.175 130.671C133.665 131.153 136.205 130.264 137.856 128.359L152.183 111.872C152.767 111.186 153.25 110.424 153.631 109.611L162.343 89.9992C163.334 87.6874 163.207 84.8422 162.242 82.937L160.54 79.355C159.244 76.6114 156.857 74.5283 153.986 73.5884L142.098 69.727C139.685 68.9395 137.475 67.6439 135.621 65.9419L124.901 56.0852L114.613 45.7967C112.835 44.0185 110.575 42.8245 108.136 42.3418L95.8161 39.9539C93.5808 39.522 91.5486 38.4042 89.9737 36.7784L80.6259 27.0488C79.4574 25.8294 77.9587 24.9911 76.333 24.61L63.3781 21.6378C61.0919 21.1043 58.9836 19.9611 57.3324 18.2845L54.335 15.2868C52.0743 13.0259 48.7466 12.1622 45.673 13.0513L38.6367 15.0582C36.6046 15.6425 34.4201 15.4901 32.4895 14.6263L29.6953 13.3816C27.2822 12.3146 25.7327 9.92665 25.7327 7.28466C25.7327 5.96366 24.9706 4.74429 23.7767 4.1346L16.2578 0.374841C14.8099 -0.361867 13.0572 0.0191985 12.0157 1.23858L0.864322 14.3723C-0.380365 15.8457 -0.227956 18.0304 1.21995 19.3006L8.58646 25.7532C9.55173 26.5915 10.898 26.7185 12.1173 26.3375C14.7083 25.4991 15.2671 27.7347 16.1816 28.0649L17.9089 29.4113C19.7378 30.8339 20.7793 33.0694 20.6777 35.3812L20.5253 38.7599C20.3729 42.0878 22.0748 45.2124 24.9198 46.9399L31.4988 50.9029C32.9975 51.792 34.1152 53.24 34.5979 54.9166L37.0618 63.3253C37.4429 64.6209 38.1287 65.8149 39.094 66.7548L44.3775 72.0388C46.2827 73.944 48.9499 74.9348 51.6424 74.6807L55.2749 74.3759C58.0691 74.1219 60.7363 75.5445 62.108 78.0086L64.7752 82.8099C65.1054 83.4196 65.5372 83.9785 66.0198 84.4866L76.1044 95.0037C77.1966 96.1469 78.5429 97.0106 80.067 97.4933L94.1142 102.168C95.1557 102.523 96.121 103.006 96.9846 103.666L105.012 109.585C105.647 110.043 106.205 110.627 106.663 111.262L116.417 125.234C117.738 127.114 119.719 128.41 121.955 128.841L121.878 128.867Z" fill="#72A7D0"/>
<path d="M12.0918 26.3882L25.9612 9.24072L29.3396 13.0767C29.5428 13.3053 29.7968 13.4832 30.1016 13.5594L35.4614 15.2868C35.7662 15.3884 36.0711 15.3884 36.3759 15.3122L46.4604 12.8735L47.9337 12.721C51.3375 12.7718 52.633 13.8388 53.6999 14.7533L56.6973 17.7002C57.1037 18.1066 57.561 18.4623 58.0436 18.7671L61.5236 21.0027C61.676 21.1043 61.8539 21.1805 62.0317 21.2313L70.9223 23.3652L76.7139 24.7116C76.9933 24.7878 78.9746 25.4229 80.3971 26.8201L84.7408 31.342L89.8466 36.6513C89.8466 36.6513 89.999 36.8038 90.1006 36.8546L93.0472 38.9377C93.225 39.0647 93.4283 39.1409 93.6315 39.1917L100.363 40.8176L107.882 42.291C108.034 42.3164 110.117 42.8753 110.27 42.9515L111.87 43.7136C113.242 44.3741 114.664 45.8475 114.791 45.9745L121.218 52.4017L129.169 60.0228L135.621 65.9419L138.44 68.0504L145.349 70.7686C145.349 70.7686 145.426 70.7686 145.451 70.794L152.589 73.1057C152.589 73.1057 153.884 73.5122 153.961 73.563L155.383 74.1473C155.612 74.2489 157.695 75.392 158.711 76.6368L159.549 77.907C159.549 77.907 160.54 79.3804 160.591 79.5074L162.115 82.7083C162.191 82.8353 162.724 84.0039 162.902 85.0455L163.004 87.0015L162.546 89.4149L159.371 84.893L156.323 79.3296C156.12 78.974 156.679 86.0616 156.323 85.9346L149.922 82.6575C149.922 82.6575 142.835 80.1171 142.809 80.0917L136.332 75.1634C136.332 75.1634 135.087 72.9787 134.325 71.5561L132.928 70.5399C132.776 70.4637 131.836 69.5746 131.709 69.473L127.416 64.4684C127.416 64.4684 127.34 64.4176 127.314 64.3668L117.128 56.5171L110.016 49.277C109.838 49.0992 106.79 47.6004 106.561 47.5242L102.776 45.9745C102.776 45.9745 99.2707 44.9076 99.1691 44.8822L96.3749 43.5104C96.3749 43.5104 96.1462 43.4596 96.0446 43.4342L90.0498 41.1478C89.872 41.0716 89.7196 40.9954 89.5672 40.8684L83.1913 35.5082C83.1913 35.5082 83.0389 35.3812 82.9881 35.305L78.0348 29.4621L76.9679 32.2565L67.6455 25.0165L60.787 23.2636C60.5838 23.2128 60.406 23.1366 60.2281 23.0096L55.9098 19.9357C55.9098 19.9357 55.7066 19.7833 55.6304 19.6817L52.4806 16.1505C52.2266 15.8711 51.8964 15.6679 51.5153 15.6171L47.3748 14.855C47.1716 14.8042 46.943 14.8296 46.7398 14.855L41.0244 15.9981C41.0244 15.9981 40.9482 15.9981 40.8974 16.0235L36.8077 17.1413C36.6299 17.1921 36.4267 17.2175 36.2489 17.1921L31.8036 16.9127L28.2981 15.0836L25.1737 13.534L22.2525 15.6425C22.2525 15.6425 22.1763 15.7187 22.1255 15.7695L12.0918 26.312V26.3882Z" fill="#011248" fill-opacity="0.56"/>
<path d="M76.1189 28.0615L80.5642 47.9272L72.2832 59.5621L83.6632 52.3221L89.8612 47.1397L91.0297 42.059L76.1189 28.0615Z" fill="#011248" fill-opacity="0.56"/>
<path d="M118.322 55.2979L121.091 67.009L116.721 79.5076L106.104 87.8654L119.719 83.2419L130.845 75.8749L132.623 69.0413L118.322 55.2979Z" fill="#011248" fill-opacity="0.56"/>
<path d="M156.042 78.0342L149.92 99.0939C149.87 99.2463 149.844 99.3733 149.819 99.5257L147.863 109.89C147.736 110.627 147.406 111.288 146.948 111.872L139.607 121.221C139.607 121.221 139.48 121.373 139.429 121.449L131.174 130.671L132.571 130.976C133.536 130.823 135.137 130.823 136.991 129.502L140.369 125.463C140.369 125.463 140.522 125.285 140.598 125.209L147.279 117.512L152.181 111.872C153.553 110.475 155.56 105.724 156.042 104.632L156.83 102.371L160.487 94.1402L162.545 89.4405L156.017 78.0342H156.042Z" fill="#011248" fill-opacity="0.56"/>
<path d="M20.1172 32.4346L20.5236 38.2774C20.5998 40.5892 20.1172 40.4876 22.0477 44.2473L23.6734 46.2288L29.1348 49.5059C30.6589 50.4204 31.929 51.6906 32.8689 53.2148L34.8756 56.5427C35.0788 56.8729 35.2312 57.2032 35.3328 57.5589L36.9586 63.1223C37.2634 64.1384 37.7714 65.561 38.4827 66.3485L42.5469 70.2607L43.8678 71.9628C44.1727 72.3692 44.5537 72.7249 44.9855 73.0043C46.8398 74.1475 48.9736 74.7318 51.1581 74.7572L53.2919 74.5793C54.5874 74.4777 55.8829 74.5793 57.1276 74.935L59.2105 75.5193C59.7185 75.6717 60.1758 75.9765 60.4806 76.4084L63.605 80.8033L64.7481 82.8864C65.688 84.3598 66.7548 85.7062 67.9487 86.951L74.0197 93.8608C75.5184 95.3596 77.2458 96.579 79.1763 97.4681C79.4303 97.5951 79.7097 97.6713 79.9891 97.7475L82.7071 98.4589L93.5791 102.092C93.9093 102.193 94.2395 102.371 94.5444 102.549L101.022 106.74C101.022 106.74 101.174 106.842 101.225 106.893L104.476 109.281C104.807 109.535 105.111 109.814 105.34 110.145L110.751 117.283L116.364 125.336L114.485 112.71C114.307 111.974 113.926 111.288 113.392 110.729L101.479 98.4589C101.25 98.2048 100.971 98.0016 100.692 97.8238L87.7875 89.6692C87.6351 89.5675 87.4827 89.4913 87.3049 89.4151L73.9435 83.1912C73.1561 82.8355 72.4956 82.2259 72.0638 81.4892L66.9834 72.8519C66.5262 72.0898 65.8658 71.4801 65.0783 71.1244L60.9124 69.2192C60.506 69.0413 60.0488 68.9143 59.5915 68.8635L53.7745 68.2538C53.0379 68.1776 52.3012 67.8982 51.6916 67.4663L45.5952 63.0207C45.3157 62.8174 45.0871 62.5888 44.8585 62.3347L39.1431 55.6282C39.0161 55.4757 38.8891 55.3233 38.7875 55.1709L35.5869 50.1664C35.282 49.6837 34.8756 49.2772 34.4184 48.947L30.0493 45.9239C30.0493 45.9239 29.8207 45.7715 29.7191 45.7207L24.8673 42.9771C23.9529 42.469 23.267 41.6307 22.9368 40.64L20.1172 32.5108V32.4346Z" fill="#BBD0E4"/>
<path d="M1.85433 13.2292L0.533435 14.8297L0 16.2015L0.177812 17.8273L0.762051 18.9197L4.52151 22.273L7.79834 25.1436L9.14463 26.2359L10.6433 26.6424L12.0912 26.3884L9.14463 24.8895L6.12182 22.3492L2.59098 19.4277L1.16848 17.5733L0.762051 15.6426L1.85433 13.2292Z" fill="#BBD0E4"/>
</svg>
