<svg width="231" height="147" viewBox="0 0 231 147" fill="none" xmlns="http://www.w3.org/2000/svg">
<path d="M78.7601 105.135C93.5751 119.667 134.661 148.403 225.951 145.443C230.059 145.323 232.399 140.689 230.089 137.31C217.674 119.249 177.667 77.1768 82.059 94.9385C77.2606 95.8356 75.2813 101.696 78.7601 105.135Z" fill="#72A7D0"/>
<path d="M8.57205 86.4077C28.6308 92.0367 78.6462 97.4622 157.355 50.6876C160.904 48.5944 160.708 43.3814 157.041 41.5233C137.376 31.6265 81.8367 13.9351 6.51999 75.8328C2.74271 78.9443 3.84916 85.0628 8.57205 86.4077Z" fill="#72A7D0"/>
<path d="M81.5699 94.6553C81.5699 94.6553 73.4499 96.365 76.8182 102.574C90.5921 127.919 173.055 152.755 225.835 145.316C234.075 144.146 229.985 137.158 229.985 137.158C226.316 149.365 72.5778 115.112 81.5398 94.6553H81.5699Z" fill="#011248" fill-opacity="0.56"/>
<path d="M6.53445 75.8596C6.53445 75.8596 0.252814 81.2781 6.2054 85.1035C30.5257 100.708 114.734 82.7235 157.343 50.7288C163.991 45.7262 157.029 41.5644 157.029 41.5644C159.723 54.0513 8.55861 98.1556 6.50814 75.8741L6.53445 75.8596Z" fill="#011248" fill-opacity="0.56"/>
<path d="M90.6566 97.7909C90.6566 97.7909 111.218 94.6553 122.86 94.6553L128 95.5598L86 100.655L90.6566 97.7909Z" fill="#BBD0E4"/>
<path d="M15.8645 74.289C15.8645 74.289 32.259 61.684 42.3956 56.0977L47.3068 54.4209L13.1884 79.025L15.8645 74.289Z" fill="#BBD0E4"/>
</svg>
