<svg width="199" height="147" viewBox="0 0 199 147" fill="none" xmlns="http://www.w3.org/2000/svg">
<path d="M19.3455 69.61L103.07 8.7327L121.575 11.2815L145.859 51.7206L35.8535 131.143L16.0276 91.0226L19.3455 69.61Z" fill="#72A7D0"/>
<path d="M19.3447 69.61L16.0268 91.0226L35.8527 131.143L44.7747 124.74L24.5022 86.3214L29.1484 62.4487L19.3447 69.61Z" fill="#011248" fill-opacity="0.56"/>
<path d="M44.7738 124.74L145.857 51.7212L140.966 43.5965L39.1409 114.055L44.7738 124.74Z" fill="#011248" fill-opacity="0.56"/>
<path d="M103.34 17.1414L117.488 18.4448L122.965 26.1232L95.0036 24.2418L103.34 17.1414Z" fill="#BBD0E4"/>
<path d="M182.316 93.5556L109.279 44.7651L93.6758 47.5499L74.4511 82.6541L170.394 146.281L185.85 111.598L182.316 93.5556Z" fill="#72A7D0"/>
<path d="M182.315 93.5556L185.85 111.598L170.394 146.281L162.614 141.153L178.506 107.898L173.762 87.8146L182.315 93.5556Z" fill="#011248" fill-opacity="0.56"/>
<path d="M162.614 141.154L74.4514 82.6546L78.3244 75.6014L167.03 131.904L162.614 141.154Z" fill="#011248" fill-opacity="0.56"/>
<path d="M109.333 51.9034L97.3821 53.4854L92.9973 60.1801L116.64 57.6422L109.333 51.9034Z" fill="#BBD0E4"/>
</svg>
