<svg width="147" height="202" viewBox="0 0 147 202" fill="none" xmlns="http://www.w3.org/2000/svg">
<path d="M8.12102 177.262L78.7487 200.579C94.1358 205.668 110.22 194.968 111.492 178.813L115.465 162.379L129.563 135.732C131.393 132.282 132.334 128.448 132.334 124.544V108.79L139.496 91.0311C143.957 79.9821 146.24 68.1838 146.24 56.2809V37.4594C146.24 32.2834 140.315 29.3731 136.22 32.51C127.123 39.4984 119.979 48.7174 115.483 59.261L111.213 69.2992L110.708 71.9481C109.401 78.7274 103.319 83.5199 96.4186 83.2236L92.2016 83.0319C86.7646 82.7879 81.8853 79.651 79.4108 74.8062L74.793 65.7614C73.7126 63.6527 73.3292 61.2652 73.6951 58.9299L79.3063 22.925C80.4041 18.3067 80.5958 9.24447 75.9605 3.51087C71.9699 -1.40365 64.3199 -1.07253 60.4862 3.96398L56.8964 8.66937C50.1874 17.4702 45.3953 27.5606 42.8336 38.3307L38.0763 58.1979C37.5536 60.3764 36.6823 62.4676 35.4799 64.3847L28.6314 75.2942C24.4666 81.934 22.0618 89.5323 21.6785 97.3572L20.7897 115.063C20.6677 117.521 20.1275 119.943 19.1865 122.209L8.92262 147.13L1.55141 160.165C-2.12548 166.666 1.06349 174.892 8.13845 177.227L8.12102 177.262Z" fill="#72A7D0"/>
<path d="M115.761 79.494L122.157 61.5089C122.697 59.9753 123.498 58.5463 124.509 57.2915L130.974 47.6716C134.39 41.2758 137.718 45.3189 137.875 46.6085L139.269 58.0409C139.391 59.1388 139.356 60.2542 139.13 61.3172L135.627 78.2218C135.313 79.7031 134.773 81.1321 134.006 82.4392L130.957 87.6151C129.336 90.3686 125.764 91.2574 123.028 89.567L118.236 86.5869C115.848 85.1056 114.803 82.1429 115.744 79.494H115.761Z" fill="#011248" fill-opacity="0.56"/>
<path d="M132.334 108.807V124.561L108.461 128.674C105.725 129.145 102.902 128.831 100.34 127.786L87.8107 122.644C85.4756 121.686 83.5413 119.961 82.3564 117.73L79.5508 112.554L91.9407 118.357C92.9862 118.845 94.1364 119.107 95.3039 119.107H111.371C114.037 119.107 116.651 118.375 118.934 116.981L132.369 108.807H132.334Z" fill="#011248" fill-opacity="0.56"/>
<path d="M115.448 162.379L90.1624 174.978C88.2804 175.92 86.1544 176.251 84.0807 175.954L55.0664 171.772L66.9161 178.203C68.589 179.109 70.4536 179.614 72.3704 179.684L100.287 180.677C102.483 180.747 104.661 180.224 106.56 179.144L112.189 175.972L115.465 162.361L115.448 162.379Z" fill="#011248" fill-opacity="0.56"/>
<path d="M35.4453 64.4023L39.9935 50.0595L42.7991 38.3658C43.6704 35.1069 45.2039 30.1923 46.5457 27.0903L47.992 23.7268C48.6891 22.0886 49.4907 20.4853 50.362 18.9168L52.4357 15.1874L56.8793 8.7044L61.7063 2.6571L47.7481 38.1741C46.1972 42.1301 45.0645 46.2429 44.4023 50.4429L35.4627 64.4023H35.4453Z" fill="#BBD0E4"/>
<path d="M96.959 85.4718L102.204 82.2477L109.035 76.3921L111.213 69.3166L117.347 55.2876L120.136 49.7979C122.564 46.3125 125.59 42.6295 129.215 38.749L131.602 36.588C133.089 35.2403 134.872 33.7299 136.952 32.0569L132.473 41.0843L124.579 50.3905L117.469 62.4154C117.103 63.0253 116.79 63.6527 116.528 64.2975L114.559 69.09C114.211 69.944 113.914 70.8153 113.705 71.7216L112.747 75.6427C112.486 76.7058 111.928 77.6817 111.161 78.4485L107.606 81.9689C106.561 82.9971 105.236 83.7116 103.807 84.0253L97.0287 85.4718H96.959Z" fill="#BBD0E4"/>
<path d="M35.4445 64.4022L27.1323 77.9607C22.3402 87.3715 21.9219 92.8959 21.8697 96.1549L21.6431 97.3748L20.1619 119.072L16.2062 129.354L8.88728 147.147L1.89944 159.19C0.888734 161.397 0.255582 163.657 0 165.969L0.104565 166.614C9.04293e-06 169.576 1.55092 171.929 2.71847 173.532L4.26938 174.961L5.26266 166.021C5.34979 163.041 6.13396 160.131 7.54547 157.517L12.8604 147.688L20.1619 130.434L23.4031 120.013L25.5117 96.2943L26.5573 87.9117C26.8884 86.6395 27.568 83.3632 27.9862 82.1084L35.4271 64.3848L35.4445 64.4022Z" fill="#BBD0E4"/>
<path d="M20.1627 119.089L26.8892 130.382C28.6318 133.31 31.7859 135.105 35.2014 135.105H50.1355L33.4936 140.246C31.5245 140.856 29.3985 140.682 27.5339 139.775L21.5568 136.848C20.6507 136.395 19.8839 135.697 19.3786 134.826L16.207 129.354L20.1627 119.072V119.089Z" fill="#011248" fill-opacity="0.56"/>
<path d="M67.4382 62.1017L61.6876 63.1997H54.4732C53.933 63.1997 53.114 62.6246 50.9706 60.3242L48.7575 57.2395C48.1127 56.891 48.2347 55.9325 48.4613 55.2354L54.7869 35.9607L60.2064 20.5026C60.886 18.5856 62.0884 16.8952 63.6742 15.6404L66.3578 13.5317C67.1071 12.9391 68.1701 13.0263 68.8323 13.706L70.2264 15.1699C71.6727 16.686 72.4046 18.7425 72.2652 20.8337L71.6553 30.018L70.784 44.4304L67.4033 62.1017H67.4382Z" fill="#011248" fill-opacity="0.56"/>
<path d="M80.6128 201.12L65.2779 196.135L31.2449 184.895L18.8027 174.996L33.1792 181.653L56.8089 190.175L80.6128 201.12Z" fill="#011248" fill-opacity="0.56"/>
<path d="M98.9509 127.386L83.2898 131.287L95.1097 130.956L106.904 129.252" fill="#011248" fill-opacity="0.56"/>
<path d="M32.4043 140.552L44.4283 149.544L66.0539 145.048L47.0073 146.303L36.2206 139.366L32.4043 140.552Z" fill="#011248" fill-opacity="0.56"/>
<path d="M27.1325 77.9604L24.4141 83.5895L32.0292 91.031L42.3454 88.138L31.9421 89.3579L29.0145 83.7638L27.1325 77.9604Z" fill="#011248" fill-opacity="0.56"/>
<path d="M96.853 171.633L77.5449 162.379L79.5315 148.646L80.6119 160.148L101.384 169.385L96.853 171.633Z" fill="#011248" fill-opacity="0.56"/>
<path d="M104.608 80.1739L102.185 86.2212L101.21 88.8701C99.467 93.6104 95.703 97.305 90.9457 98.9954L87.5476 100.198C83.5919 101.592 79.2877 101.714 75.2623 100.546L67.56 98.3158C65.2598 97.6535 63.0641 96.6079 61.095 95.2486L59.3523 94.0461C55.9717 91.7108 53.3752 88.417 51.9114 84.6004L51.4932 83.4851C50.6393 81.2718 50.0817 78.954 49.8377 76.6013L49.4369 72.8021C49.1058 69.6652 50.3082 66.5457 52.6433 64.437L53.0093 64.1059C53.8457 63.3565 53.4624 63.7225 54.4905 63.2519H57.1741C57.7492 62.9905 61.0601 63.1996 61.7049 63.2519L68.6927 61.9971L73.5545 60.7075C73.7114 62.2063 74.0076 63.705 74.4607 65.1515L74.4955 65.2735C75.8548 67.9224 75.5063 66.9814 76.1684 68.3233C76.3079 68.5847 77.7716 71.6345 77.9285 71.8959C79.2529 74.2834 78.8346 73.8303 81.5531 78.0477L81.7796 78.3266C83.9927 80.4179 86.1013 81.934 89.0463 82.4743C90.1441 82.6834 91.2245 82.8577 92.0087 82.9797C93.1937 83.1714 94.3961 83.1888 95.581 83.0494L104.625 80.2436L104.608 80.1739Z" fill="#000515" fill-opacity="0.56"/>
</svg>
