<svg width="239" height="140" viewBox="0 0 239 140" fill="none" xmlns="http://www.w3.org/2000/svg">
<path d="M116.603 29.9001L135.143 1.37138C136.026 0.0317139 137.761 -0.394565 139.162 0.397054L144.307 3.38088C147.078 4.96412 148.63 8.03923 148.356 11.2057L147.017 25.5157C146.743 28.2864 147.717 31.0266 149.665 33.0361L160.778 44.4842C162.208 45.9456 163 47.8942 163 49.9341V58.9769C163 61.5648 160.564 63.4526 158.068 62.7827L119.251 52.4003L118.399 58.0939C117.272 65.523 113.132 72.1299 106.952 76.3925L105.216 77.5799C102.842 79.224 100.345 80.6246 97.6965 81.812L93.282 83.7911C87.1322 86.5313 80.2822 87.3229 73.6757 86.0441C69.2917 85.1916 65.1817 83.2126 61.8024 80.2897L50.0508 70.2118L25.9083 97.4617C24.721 98.8014 22.7725 99.1972 21.1589 98.436L16.9271 96.4265C14.6134 95.3304 13.2738 92.8947 13.5783 90.3676L15.5572 74.2307C15.8007 72.3126 15.1614 70.3944 13.7914 68.9939L1.27866 56.1148C0.456662 55.2623 0 54.1358 0 52.9484V43.5098C0 40.4956 2.89223 38.3034 5.8149 39.1255L42.1657 49.4165L45.2101 39.0951C45.9712 36.4766 47.2499 34.0409 48.9548 31.8792L51.299 28.9258C55.1655 24.0543 60.0975 20.1571 65.7602 17.5387L68.8655 16.0772C74.4064 13.5197 80.5258 12.5454 86.5842 13.3065L89.0807 13.611C93.5865 14.1895 98.0009 15.4378 102.141 17.356C106.038 19.1524 109.509 21.7708 112.34 24.9677L116.694 29.9001H116.603Z" fill="#72A7D0"/>
<path d="M58.1496 26.5509L55.3183 29.4737C52.6392 32.2444 50.5385 35.6545 49.1381 39.4299L45.4238 49.5078L53.1263 53.9226V44.2709C53.1263 39.7343 54.9225 35.4718 58.0583 32.5793L61.9248 29.0171C63.2339 27.8296 64.6343 26.7944 66.1565 25.9419L76.873 19.9438H69.3532L64.1777 22.2578C61.9248 23.2626 59.885 24.724 58.1192 26.5509H58.1496Z" fill="#BBD0E4"/>
<path d="M119.037 31.118L137.182 5.48169L142.784 8.49595L143.728 18.2998L139.983 15.8946L138.826 11.9973L123.695 29.0172L119.037 31.118Z" fill="#BBD0E4"/>
<path d="M43.6889 56.9065L22.9258 51.761L27.2185 56.4802L44.5414 61.3213L43.6889 56.9065Z" fill="#011248" fill-opacity="0.56"/>
<path d="M47.4324 67.8978L45.0577 64.5791L32.1797 79.4981V85.3135L47.4324 67.8978Z" fill="#011248" fill-opacity="0.56"/>
<path d="M44.5402 61.3212L47.4325 67.8977L36.2289 69.1156L39.7909 65.2184L33.7324 62.2042L44.2053 59.6162L44.5402 61.3212Z" fill="#011248" fill-opacity="0.56"/>
<path d="M121.291 47.1634L141.567 54.0445L137.67 48.9598L120.834 42.6877L121.291 47.1634Z" fill="#011248" fill-opacity="0.56"/>
<path d="M118.52 35.8678L120.59 39.3692L134.716 25.6072L135.203 19.8223L118.52 35.8678Z" fill="#011248" fill-opacity="0.56"/>
<path d="M120.833 42.6877L118.52 35.8676L129.754 35.624L125.887 39.2167L131.672 42.7182L121.016 44.3927L120.833 42.6877Z" fill="#011248" fill-opacity="0.56"/>
<path d="M99.1592 74.9614L108.567 69.1156L113.712 54.0444L108.567 57.7894L105.096 66.6494L94.4707 72.7692L99.1592 74.9614Z" fill="#BBD0E4"/>
<path d="M148.683 86.9955L134.424 65.0547C133.745 64.0244 132.41 63.6965 131.333 64.3054L127.376 66.6002C125.245 67.8178 124.051 70.1828 124.262 72.6181L125.292 83.6236C125.503 85.7545 124.754 87.8619 123.255 89.4074L114.709 98.2118C113.608 99.3358 113 100.834 113 102.403V109.358C113 111.348 114.873 112.8 116.793 112.285L146.646 104.3L147.301 108.679C148.168 114.392 151.352 119.474 156.105 122.752L157.44 123.665C159.266 124.93 161.186 126.007 163.223 126.92L166.618 128.442C171.348 130.549 176.616 131.158 181.697 130.175C185.069 129.519 188.23 127.997 190.828 125.749L199.866 117.998L218.434 138.956C219.347 139.986 220.846 140.29 222.086 139.705L225.341 138.16C227.121 137.317 228.151 135.443 227.917 133.5L226.395 121.089C226.207 119.614 226.699 118.139 227.753 117.062L237.376 107.157C238.008 106.501 238.359 105.635 238.359 104.721V97.4625C238.359 95.1443 236.135 93.4583 233.887 94.0906L205.931 102.005L203.589 94.0672C203.004 92.0534 202.02 90.1801 200.709 88.5176L198.906 86.2462C195.933 82.4997 192.14 79.5024 187.785 77.4886L185.396 76.3646C181.135 74.3977 176.429 73.6484 171.769 74.2338L169.849 74.468C166.384 74.9129 162.989 75.8729 159.805 77.3481C156.808 78.7297 154.138 80.7434 151.961 83.2021L148.613 86.9955H148.683Z" fill="#72A7D0"/>
<path d="M193.639 84.4197L195.816 86.6676C197.877 88.7985 199.492 91.4211 200.569 94.3247L203.426 102.075L197.502 105.471V98.0478C197.502 94.5588 196.121 91.2806 193.709 89.0561L190.735 86.3164C189.728 85.4032 188.651 84.607 187.481 83.9513L179.239 79.3384H185.022L189.003 81.118C190.735 81.8908 192.304 83.0147 193.662 84.4197H193.639Z" fill="#BBD0E4"/>
<path d="M146.811 87.9322L132.856 68.2158L128.547 70.534L127.822 78.074L130.702 76.2241L131.591 73.2269L143.228 86.3164L146.811 87.9322Z" fill="#BBD0E4"/>
<path d="M204.76 107.766L220.729 103.808L217.427 107.438L204.104 111.161L204.76 107.766Z" fill="#011248" fill-opacity="0.56"/>
<path d="M201.881 116.219L203.707 113.667L213.611 125.14V129.613L201.881 116.219Z" fill="#011248" fill-opacity="0.56"/>
<path d="M204.104 111.161L201.88 116.219L210.496 117.155L207.757 114.158L212.416 111.84L204.362 109.85L204.104 111.161Z" fill="#011248" fill-opacity="0.56"/>
<path d="M145.077 100.272L129.483 105.565L132.48 101.654L145.428 96.8303L145.077 100.272Z" fill="#011248" fill-opacity="0.56"/>
<path d="M147.209 91.5851L145.617 94.278L134.753 83.6939L134.378 79.2449L147.209 91.5851Z" fill="#011248" fill-opacity="0.56"/>
<path d="M145.429 96.8302L147.209 91.585L138.569 91.3977L141.543 94.1608L137.094 96.8536L145.289 98.1415L145.429 96.8302Z" fill="#011248" fill-opacity="0.56"/>
<path d="M162.097 121.651L154.862 117.155L150.905 105.564L154.862 108.445L157.532 115.259L165.703 119.965L162.097 121.651Z" fill="#BBD0E4"/>
</svg>
