<svg width="106" height="177" viewBox="0 0 106 177" fill="none" xmlns="http://www.w3.org/2000/svg">
<path d="M20.3176 176.033L20.1968 175.998C19.0751 175.67 18.0224 175.101 17.0732 174.203C15.9688 173.168 14.9851 171.701 15.4856 169.647L38.4551 92.6215L44.5124 51.8738C44.7713 50.5794 52.3645 25.9685 52.6924 24.6741L57.6798 2.63477L68.0515 5.10276L54.1593 51.9946L47.498 89.7911L25.4258 171.476C22.6819 177.31 21.8018 175.498 20.3349 176.015L20.3176 176.033Z" fill="#72A7D0"/>
<path d="M68.166 4.85173C68.4718 3.66077 66.3698 2.09192 63.4711 1.3476C60.5724 0.603281 57.9746 0.965358 57.6689 2.15632C57.3631 3.34728 59.4651 4.91613 62.3638 5.66045C65.2625 6.40477 67.8602 6.04269 68.166 4.85173Z" fill="#011248" fill-opacity="0.8"/>
<path d="M68.0345 5.13721C64.7211 16.666 60.4067 30.0242 56.5411 41.3804C55.6955 43.8657 54.9879 47.0758 54.3667 49.6128C53.8144 51.8392 52.8653 55.5153 52.5201 57.7762C51.0188 67.4411 49.9661 74.8968 48.4474 84.5789C47.9469 87.8236 46.3938 94.2783 45.3066 97.3676C44.4092 99.9219 44.3919 100.146 43.8224 102.787C43.322 105.151 42.3211 107.447 41.8033 109.794C41.2684 112.193 41.044 114.195 40.3192 116.542C37.2646 126.552 36.816 128.002 34.9004 134.698" fill="#011248" fill-opacity="0.56"/>
<path d="M35.0545 133.884C31.5513 146.224 29.2733 158.443 25.4767 170.645C25.1315 171.767 24.424 173.579 23.7164 174.511C23.0089 175.443 20.334 176.03 20.334 176.03" fill="#011248" fill-opacity="0.56"/>
<path d="M57.972 2.16873L53.6577 22.2924L47.98 51.0626L39.9208 89.8428L16.796 173.91L16.2783 173.409C15.703 172.535 15.3694 171.62 15.2773 170.665L15.4672 169.733L37.1079 90.2743L42.3196 64.0584L44.6494 50.6656L52.4152 21.6193L57.7304 1.61646L57.8512 1.92711L57.972 2.13422V2.16873Z" fill="#BBD0E4"/>
<path d="M3.18071 169.716L3.07717 169.647C2.12801 168.974 1.29966 168.094 0.712912 166.937C0.0226176 165.591 -0.443331 163.883 0.712912 162.122L47.6011 96.8498L66.636 60.3305C67.309 59.1914 82.5127 38.4119 83.2548 37.3074L95.1796 18.1157L104.171 23.8456L75.7133 63.6096L57.0582 97.1432L9.47964 167.093C4.97548 171.701 4.73387 169.699 3.19797 169.716H3.18071Z" fill="#72A7D0"/>
<path d="M104.365 23.5949C105.043 22.5693 103.57 20.3995 101.074 18.7485C98.5773 17.0974 96.004 16.5904 95.3257 17.6159C94.6475 18.6415 96.1212 20.8113 98.6174 22.4624C101.114 24.1134 103.687 24.6205 104.365 23.5949Z" fill="#011248" fill-opacity="0.8"/>
<path d="M104.154 23.811C97.2511 33.6312 88.8123 44.8321 81.4434 54.3071C79.8384 56.3782 78.1127 59.1741 76.6976 61.3659C75.4551 63.2816 73.3497 66.4572 72.2797 68.4765C67.6893 77.1231 64.2551 83.8195 59.6819 92.4661C58.146 95.3655 54.5737 100.957 52.5373 103.529C50.8461 105.652 50.7598 105.842 49.362 108.171C48.1194 110.243 46.4282 112.089 45.1512 114.143C43.8569 116.231 42.994 118.061 41.5444 120.045C35.3835 128.502 34.4861 129.728 30.4824 135.44" fill="#011248" fill-opacity="0.56"/>
<path d="M30.8953 134.713C23.5437 145.223 17.4173 156.044 9.82409 166.331C9.13379 167.28 7.87401 168.747 6.89034 169.403C5.90667 170.058 3.19727 169.731 3.19727 169.731" fill="#011248" fill-opacity="0.56"/>
<path d="M95.5937 17.719L84.9459 35.3229L70.1736 60.6586L49.879 94.6755L0.540195 166.575L0.212306 165.937C-0.0523072 164.924 -0.0695645 163.952 0.160533 163.02L0.643739 162.209L47.066 94.1922L60.5613 71.1346L67.1363 59.2434L83.9622 34.3391L95.5246 17.1667V17.4947L95.5764 17.7363L95.5937 17.719Z" fill="#BBD0E4"/>
</svg>
