<svg width="191" height="193" viewBox="0 0 191 193" fill="none" xmlns="http://www.w3.org/2000/svg">
<path d="M14 126L66.8134 35.913L152 14L71.8946 113.44L14 126Z" fill="#7B86B0" fill-opacity="0.5"/>
<path d="M14 125.583L71.8713 113.305L191 111L97.1515 143L14 125.583Z" fill="#011248" fill-opacity="0.75"/>
<path d="M14.5328 126L0 89.9669L47.1261 12.6655L105.487 0L152 14.4363L67.1423 36.2639L14.5328 126Z" fill="#72A7D0"/>
<path d="M14.0384 125.763L14 157.966L112.483 193L168.38 155.327L191 111L97.1719 143.395L14.0384 125.763Z" fill="#72A7D0"/>
<path d="M19 131V155.51L108 187L24.711 152.863L24.2511 132.573L19 131Z" fill="#BBD0E4"/>
<path d="M4 90L13.8077 114L58 38L13.8077 98.9905L7.53851 85.2762L4 90Z" fill="#BBD0E4"/>
</svg>
